<svg xmlns="http://www.w3.org/2000/svg" viewBox="0 0 48 48" fill="none">
  <defs>
    <linearGradient id="bg" x1="0" y1="0" x2="1" y2="1">
      <stop offset="0%" stop-color="#1E1B4B"/>
      <stop offset="100%" stop-color="#312E81"/>
    </linearGradient>
    <linearGradient id="pin" x1="0" y1="0" x2="1" y2="1">
      <stop offset="0%" stop-color="#4338CA"/>
      <stop offset="50%" stop-color="#0D9488"/>
      <stop offset="100%" stop-color="#2DD4BF"/>
    </linearGradient>
    <linearGradient id="lines" x1="0" y1="0" x2="1" y2="0">
      <stop offset="0%" stop-color="#4338CA"/>
      <stop offset="100%" stop-color="#2DD4BF"/>
    </linearGradient>
  </defs>
  <!-- Rounded square background -->
  <rect width="48" height="48" rx="10" fill="url(#bg)"/>
  <!-- Speed lines -->
  <rect x="6" y="16" width="11" height="2.5" rx="1.25" fill="url(#lines)" opacity="0.7"/>
  <rect x="8" y="22" width="10" height="2.5" rx="1.25" fill="url(#lines)" opacity="0.85"/>
  <rect x="6" y="28" width="11" height="2.5" rx="1.25" fill="url(#lines)" opacity="0.7"/>
  <!-- Location pin -->
  <path d="M30 8C24.5 8 20 12.3 20 17.5C20 25 30 38 30 38C30 38 40 25 40 17.5C40 12.3 35.5 8 30 8Z" fill="url(#pin)"/>
  <!-- Inner circle -->
  <circle cx="30" cy="17.5" r="4.5" fill="white" opacity="0.95"/>
  <circle cx="30" cy="17.5" r="2.2" fill="#1E1B4B"/>
</svg>
