<svg xmlns="http://www.w3.org/2000/svg" viewBox="0 0 280 64" width="280" height="64" role="img" aria-label="FastGEO logo">
  <defs>
    <linearGradient id="fg-grad-2" x1="0" y1="0" x2="64" y2="64" gradientUnits="userSpaceOnUse">
      <stop offset="0" stop-color="#1E1B4B"/>
      <stop offset=".55" stop-color="#4338CA"/>
      <stop offset="1" stop-color="#0D9488"/>
    </linearGradient>
    <linearGradient id="fg-text-grad" x1="0" y1="0" x2="120" y2="0" gradientUnits="userSpaceOnUse">
      <stop offset="0" stop-color="#4338CA"/>
      <stop offset="1" stop-color="#0D9488"/>
    </linearGradient>
  </defs>

  <!-- mark -->
  <g>
    <rect x="0" y="0" width="64" height="64" rx="14" ry="14" fill="url(#fg-grad-2)"/>
    <g fill="none" stroke="#FFFFFF" stroke-linecap="round" stroke-width="2.6" opacity=".85">
      <line x1="9"  y1="22" x2="20" y2="22"/>
      <line x1="6"  y1="32" x2="22" y2="32"/>
      <line x1="11" y1="42" x2="20" y2="42"/>
    </g>
    <path d="M44 14 C 44 24, 46 26, 56 26 C 46 26, 44 28, 44 38 C 44 28, 42 26, 32 26 C 42 26, 44 24, 44 14 Z" fill="#FFFFFF"/>
    <path d="M52 40 C 52 45, 53 46, 58 46 C 53 46, 52 47, 52 52 C 52 47, 51 46, 46 46 C 51 46, 52 45, 52 40 Z" fill="#FFFFFF" opacity=".75"/>
  </g>

  <!-- wordmark -->
  <g font-family="Inter, system-ui, -apple-system, Segoe UI, Roboto, sans-serif" font-weight="800" font-size="34" letter-spacing="-1.2">
    <text x="80" y="44" fill="#1E1B4B">Fast</text>
    <text x="158" y="44" fill="url(#fg-text-grad)">GEO</text>
  </g>
</svg>
