<svg xmlns="http://www.w3.org/2000/svg" viewBox="0 0 280 64" width="280" height="64" role="img" aria-label="FastGEO logo (light)">
  <!-- mark -->
  <g>
    <rect x="0" y="0" width="64" height="64" rx="14" ry="14" fill="#FFFFFF" fill-opacity=".10" stroke="#FFFFFF" stroke-opacity=".25"/>
    <g fill="none" stroke="#FFFFFF" stroke-linecap="round" stroke-width="2.6">
      <line x1="9"  y1="22" x2="20" y2="22"/>
      <line x1="6"  y1="32" x2="22" y2="32"/>
      <line x1="11" y1="42" x2="20" y2="42"/>
    </g>
    <path d="M44 14 C 44 24, 46 26, 56 26 C 46 26, 44 28, 44 38 C 44 28, 42 26, 32 26 C 42 26, 44 24, 44 14 Z" fill="#FFFFFF"/>
    <path d="M52 40 C 52 45, 53 46, 58 46 C 53 46, 52 47, 52 52 C 52 47, 51 46, 46 46 C 51 46, 52 45, 52 40 Z" fill="#FFFFFF" opacity=".7"/>
  </g>
  <g font-family="Inter, system-ui, sans-serif" font-weight="800" font-size="34" letter-spacing="-1.2" fill="#FFFFFF">
    <text x="80" y="44">FastGEO</text>
  </g>
</svg>
